<?xml version="1.0" encoding="iso-8859-1"?>
<!-- Generator: Adobe Illustrator 19.0.0, SVG Export Plug-In . SVG Version: 6.00 Build 0)  -->
<svg version="1.1" id="Layer_1" xmlns="http://www.w3.org/2000/svg" xmlns:xlink="http://www.w3.org/1999/xlink" x="0px" y="0px"
	 viewBox="0 0 508 508" style="enable-background:new 0 0 508 508;" xml:space="preserve">
<circle style="fill:#54C0EB;" cx="254" cy="254" r="254"/>
<g>
	<path style="fill:#324A5E;" d="M228.8,371.2l-14.4,43.6H196l47.2-138.4h21.2l47.2,138.4h-19.2L278,371.2H228.8z M274.4,357.2
		l-13.6-39.6c-3.2-9.2-5.2-17.2-7.2-25.2h-0.4c-2,8-4,16.8-6.8,25.2l-13.6,40h41.6V357.2z"/>
	<path style="fill:#324A5E;" d="M278,156.4l14.8-43.6H312l-47.2,138.4h-21.2L196,112.8h18.4l14.4,43.6H278z M232.8,170.4l13.6,40
		c2.8,8.4,4.8,17.2,6.8,25.2h0.4c2-8,4-16.4,7.2-25.2l13.6-39.6h-41.6V170.4z"/>
</g>
<path style="fill:#FFFFFF;" d="M406.8,350H101.2c-10,0-18-8-18-18V140.4c0-10,8-18,18-18h305.6c10,0,18,8,18,18V332
	C424.8,342,416.8,350,406.8,350z"/>
<g>
</g>
<g>
</g>
<g>
</g>
<g>
</g>
<g>
</g>
<g>
</g>
<g>
</g>
<g>
</g>
<g>
</g>
<g>
</g>
<g>
</g>
<g>
</g>
<g>
</g>
<g>
</g>
<g>
</g>
</svg>
